<svg width="370" height="91" viewBox="0 0 370 91" fill="none" xmlns="http://www.w3.org/2000/svg">
<g filter="url(#filter0_d_1510_228)">
<path d="M0 8C0 3.58172 3.58172 0 8 0H362C366.418 0 370 3.58172 370 8V44V80C370 84.4183 366.418 88 362 88H8.00001C3.58173 88 0 84.4183 0 80V44V8Z" fill="url(#paint0_linear_1510_228)"/>
<path d="M0.5 8C0.5 3.85786 3.85786 0.5 8 0.5H362C366.142 0.5 369.5 3.85787 369.5 8V44V80C369.5 84.1421 366.142 87.5 362 87.5H8.00001C3.85787 87.5 0.5 84.1421 0.5 80V44V8Z" stroke="url(#paint1_linear_1510_228)"/>
</g>
<path d="M73.1281 27.8H75.5281L78.1681 31.544L80.8081 27.8H83.2401L79.4801 33.176L83.5441 39H81.0801L78.1681 34.92L75.2721 39H72.8721L76.9201 33.256L73.1281 27.8ZM90.1039 39.16C89.2293 39.16 88.4239 39.016 87.6879 38.728C86.9519 38.44 86.3119 38.04 85.7679 37.528C85.2239 37.0053 84.8026 36.3973 84.5039 35.704C84.2053 35 84.0559 34.232 84.0559 33.4C84.0559 32.568 84.2053 31.8053 84.5039 31.112C84.8026 30.408 85.2239 29.8 85.7679 29.288C86.3119 28.7653 86.9519 28.36 87.6879 28.072C88.4239 27.784 89.2239 27.64 90.0879 27.64C90.9626 27.64 91.7626 27.784 92.4879 28.072C93.2239 28.36 93.8639 28.7653 94.4079 29.288C94.9519 29.8 95.3733 30.408 95.6719 31.112C95.9706 31.8053 96.1199 32.568 96.1199 33.4C96.1199 34.232 95.9706 35 95.6719 35.704C95.3733 36.408 94.9519 37.016 94.4079 37.528C93.8639 38.04 93.2239 38.44 92.4879 38.728C91.7626 39.016 90.9679 39.16 90.1039 39.16ZM90.0879 37.336C90.6533 37.336 91.1759 37.24 91.6559 37.048C92.1359 36.856 92.5519 36.584 92.9039 36.232C93.2559 35.8693 93.5279 35.4533 93.7199 34.984C93.9226 34.504 94.0239 33.976 94.0239 33.4C94.0239 32.824 93.9226 32.3013 93.7199 31.832C93.5279 31.352 93.2559 30.936 92.9039 30.584C92.5519 30.2213 92.1359 29.944 91.6559 29.752C91.1759 29.56 90.6533 29.464 90.0879 29.464C89.5226 29.464 88.9999 29.56 88.5199 29.752C88.0506 29.944 87.6346 30.2213 87.2719 30.584C86.9199 30.936 86.6426 31.352 86.4399 31.832C86.2479 32.3013 86.1519 32.824 86.1519 33.4C86.1519 33.9653 86.2479 34.488 86.4399 34.968C86.6426 35.448 86.9199 35.8693 87.2719 36.232C87.6239 36.584 88.0399 36.856 88.5199 37.048C88.9999 37.24 89.5226 37.336 90.0879 37.336ZM105.177 34.648C104.591 34.8933 104.02 35.0747 103.465 35.192C102.911 35.3093 102.372 35.368 101.849 35.368C100.42 35.368 99.3159 35.0267 98.5372 34.344C97.7692 33.6507 97.3852 32.6587 97.3852 31.368V27.8H99.4492V31.144C99.4492 31.9333 99.6785 32.536 100.137 32.952C100.596 33.368 101.252 33.576 102.105 33.576C102.617 33.576 103.129 33.5173 103.641 33.4C104.164 33.2827 104.665 33.1013 105.145 32.856L105.177 34.648ZM104.857 39V27.8H106.921V39H104.857ZM110.22 37.24C110.807 37.4427 111.324 37.496 111.772 37.4C112.22 37.304 112.62 36.9787 112.972 36.424L113.516 35.576L113.724 35.352L117.628 27.8H119.676L114.812 36.84C114.418 37.5973 113.948 38.1733 113.404 38.568C112.86 38.9627 112.274 39.1813 111.644 39.224C111.026 39.2773 110.38 39.16 109.708 38.872L110.22 37.24ZM113.676 37.144L108.684 27.8H110.908L114.812 35.544L113.676 37.144ZM130.979 39.16C130.104 39.16 129.299 39.016 128.563 38.728C127.827 38.44 127.187 38.04 126.643 37.528C126.099 37.0053 125.678 36.3973 125.379 35.704C125.08 35 124.931 34.232 124.931 33.4C124.931 32.568 125.08 31.8053 125.379 31.112C125.678 30.408 126.099 29.8 126.643 29.288C127.187 28.7653 127.827 28.36 128.563 28.072C129.299 27.784 130.099 27.64 130.963 27.64C131.838 27.64 132.638 27.784 133.363 28.072C134.099 28.36 134.739 28.7653 135.283 29.288C135.827 29.8 136.248 30.408 136.547 31.112C136.846 31.8053 136.995 32.568 136.995 33.4C136.995 34.232 136.846 35 136.547 35.704C136.248 36.408 135.827 37.016 135.283 37.528C134.739 38.04 134.099 38.44 133.363 38.728C132.638 39.016 131.843 39.16 130.979 39.16ZM130.963 37.336C131.528 37.336 132.051 37.24 132.531 37.048C133.011 36.856 133.427 36.584 133.779 36.232C134.131 35.8693 134.403 35.4533 134.595 34.984C134.798 34.504 134.899 33.976 134.899 33.4C134.899 32.824 134.798 32.3013 134.595 31.832C134.403 31.352 134.131 30.936 133.779 30.584C133.427 30.2213 133.011 29.944 132.531 29.752C132.051 29.56 131.528 29.464 130.963 29.464C130.398 29.464 129.875 29.56 129.395 29.752C128.926 29.944 128.51 30.2213 128.147 30.584C127.795 30.936 127.518 31.352 127.315 31.832C127.123 32.3013 127.027 32.824 127.027 33.4C127.027 33.9653 127.123 34.488 127.315 34.968C127.518 35.448 127.795 35.8693 128.147 36.232C128.499 36.584 128.915 36.856 129.395 37.048C129.875 37.24 130.398 37.336 130.963 37.336ZM141.49 39V29.048L141.986 29.56H137.794V27.8H147.266V29.56H143.074L143.554 29.048V39H141.49ZM149.06 39V27.8H153.668C154.66 27.8 155.508 27.96 156.212 28.28C156.927 28.6 157.476 29.0587 157.86 29.656C158.244 30.2533 158.436 30.9627 158.436 31.784C158.436 32.6053 158.244 33.3147 157.86 33.912C157.476 34.5093 156.927 34.968 156.212 35.288C155.508 35.608 154.66 35.768 153.668 35.768H150.212L151.14 34.792V39H149.06ZM151.14 35.016L150.212 34.008H153.572C154.49 34.008 155.178 33.816 155.636 33.432C156.106 33.0373 156.34 32.488 156.34 31.784C156.34 31.0693 156.106 30.52 155.636 30.136C155.178 29.752 154.49 29.56 153.572 29.56H150.212L151.14 28.536V35.016ZM160.42 39V27.8H162.468V35.752L168.484 27.8H170.42V39H168.372V31.064L162.356 39H160.42ZM173.576 39V27.8H175.272L180.184 35.976H179.272L184.104 27.8H185.8L185.832 39H183.848L183.832 30.888H184.248L180.152 37.72H179.224L175.064 30.888H175.544V39H173.576ZM187.542 39L192.582 27.8H194.63L199.686 39H197.51L193.174 28.904H194.006L189.686 39H187.542ZM189.862 36.408L190.422 34.776H196.47L197.03 36.408H189.862ZM203.193 39V29.048L203.689 29.56H199.497V27.8H208.969V29.56H204.777L205.257 29.048V39H203.193ZM210.779 39V27.8H212.827V35.752L218.843 27.8H220.779V39H218.731V31.064L212.715 39H210.779ZM235.781 38.04V29.56H231.397L231.317 31.544C231.285 32.2907 231.237 33 231.173 33.672C231.12 34.3333 231.029 34.936 230.901 35.48C230.784 36.024 230.619 36.4773 230.405 36.84C230.192 37.2027 229.931 37.4427 229.621 37.56L227.381 37.24C227.787 37.2613 228.117 37.1227 228.373 36.824C228.64 36.5253 228.848 36.1093 228.997 35.576C229.147 35.0427 229.259 34.4187 229.333 33.704C229.408 32.9787 229.461 32.1947 229.493 31.352L229.621 27.8H237.829V38.04H235.781ZM226.997 41.384L227.013 37.24H239.445V41.384H237.525V39H228.933V41.384H226.997ZM246.604 39.16C245.729 39.16 244.924 39.016 244.188 38.728C243.452 38.44 242.812 38.04 242.268 37.528C241.724 37.0053 241.303 36.3973 241.004 35.704C240.705 35 240.556 34.232 240.556 33.4C240.556 32.568 240.705 31.8053 241.004 31.112C241.303 30.408 241.724 29.8 242.268 29.288C242.812 28.7653 243.452 28.36 244.188 28.072C244.924 27.784 245.724 27.64 246.588 27.64C247.463 27.64 248.263 27.784 248.988 28.072C249.724 28.36 250.364 28.7653 250.908 29.288C251.452 29.8 251.873 30.408 252.172 31.112C252.471 31.8053 252.62 32.568 252.62 33.4C252.62 34.232 252.471 35 252.172 35.704C251.873 36.408 251.452 37.016 250.908 37.528C250.364 38.04 249.724 38.44 248.988 38.728C248.263 39.016 247.468 39.16 246.604 39.16ZM246.588 37.336C247.153 37.336 247.676 37.24 248.156 37.048C248.636 36.856 249.052 36.584 249.404 36.232C249.756 35.8693 250.028 35.4533 250.22 34.984C250.423 34.504 250.524 33.976 250.524 33.4C250.524 32.824 250.423 32.3013 250.22 31.832C250.028 31.352 249.756 30.936 249.404 30.584C249.052 30.2213 248.636 29.944 248.156 29.752C247.676 29.56 247.153 29.464 246.588 29.464C246.023 29.464 245.5 29.56 245.02 29.752C244.551 29.944 244.135 30.2213 243.772 30.584C243.42 30.936 243.143 31.352 242.94 31.832C242.748 32.3013 242.652 32.824 242.652 33.4C242.652 33.9653 242.748 34.488 242.94 34.968C243.143 35.448 243.42 35.8693 243.772 36.232C244.124 36.584 244.54 36.856 245.02 37.048C245.5 37.24 246.023 37.336 246.588 37.336ZM260.072 39.16C259.218 39.16 258.424 39.0213 257.688 38.744C256.962 38.456 256.328 38.056 255.784 37.544C255.25 37.0213 254.834 36.408 254.536 35.704C254.237 35 254.088 34.232 254.088 33.4C254.088 32.568 254.237 31.8 254.536 31.096C254.834 30.392 255.256 29.784 255.8 29.272C256.344 28.7493 256.978 28.3493 257.704 28.072C258.429 27.784 259.224 27.64 260.088 27.64C261.005 27.64 261.842 27.8 262.6 28.12C263.357 28.4293 263.997 28.8933 264.52 29.512L263.176 30.776C262.77 30.3387 262.317 30.0133 261.816 29.8C261.314 29.576 260.77 29.464 260.184 29.464C259.597 29.464 259.058 29.56 258.568 29.752C258.088 29.944 257.666 30.216 257.304 30.568C256.952 30.92 256.674 31.336 256.472 31.816C256.28 32.296 256.184 32.824 256.184 33.4C256.184 33.976 256.28 34.504 256.472 34.984C256.674 35.464 256.952 35.88 257.304 36.232C257.666 36.584 258.088 36.856 258.568 37.048C259.058 37.24 259.597 37.336 260.184 37.336C260.77 37.336 261.314 37.2293 261.816 37.016C262.317 36.792 262.77 36.456 263.176 36.008L264.52 37.288C263.997 37.896 263.357 38.36 262.6 38.68C261.842 39 261 39.16 260.072 39.16ZM268.678 39V29.048L269.174 29.56H264.982V27.8H274.454V29.56H270.262L270.742 29.048V39H268.678ZM275.923 37.24C276.51 37.4427 277.027 37.496 277.475 37.4C277.923 37.304 278.323 36.9787 278.675 36.424L279.219 35.576L279.427 35.352L283.331 27.8H285.379L280.515 36.84C280.121 37.5973 279.651 38.1733 279.107 38.568C278.563 38.9627 277.977 39.1813 277.347 39.224C276.729 39.2773 276.083 39.16 275.411 38.872L275.923 37.24ZM279.379 37.144L274.387 27.8H276.611L280.515 35.544L279.379 37.144ZM286.842 39V27.8H296.746V39H294.698V29.048L295.178 29.56H288.41L288.89 29.048V39H286.842ZM106.87 59.896L107.542 58.376C108.022 58.7067 108.545 58.9627 109.11 59.144C109.686 59.3147 110.257 59.4053 110.822 59.416C111.388 59.4267 111.9 59.3627 112.358 59.224C112.828 59.0853 113.201 58.8773 113.478 58.6C113.756 58.3227 113.894 57.976 113.894 57.56C113.894 57.0587 113.686 56.6853 113.27 56.44C112.865 56.184 112.31 56.056 111.606 56.056H108.998V54.424H111.446C112.076 54.424 112.561 54.296 112.902 54.04C113.254 53.784 113.43 53.4373 113.43 53C113.43 52.6373 113.313 52.3387 113.078 52.104C112.854 51.8693 112.545 51.6933 112.15 51.576C111.766 51.4587 111.329 51.4053 110.838 51.416C110.358 51.416 109.857 51.4907 109.334 51.64C108.812 51.7787 108.316 51.9867 107.846 52.264L107.19 50.584C107.894 50.2107 108.63 49.9493 109.398 49.8C110.177 49.6507 110.929 49.608 111.654 49.672C112.38 49.736 113.03 49.9013 113.606 50.168C114.193 50.4347 114.662 50.7867 115.014 51.224C115.366 51.6507 115.542 52.1573 115.542 52.744C115.542 53.2773 115.398 53.752 115.11 54.168C114.833 54.5733 114.449 54.888 113.958 55.112C113.468 55.336 112.897 55.448 112.246 55.448L112.326 54.936C113.062 54.936 113.702 55.064 114.246 55.32C114.801 55.5653 115.228 55.9067 115.526 56.344C115.836 56.7813 115.99 57.288 115.99 57.864C115.99 58.408 115.852 58.8933 115.574 59.32C115.297 59.736 114.918 60.088 114.438 60.376C113.958 60.6533 113.409 60.8613 112.79 61C112.172 61.128 111.521 61.176 110.838 61.144C110.156 61.112 109.473 60.9947 108.79 60.792C108.118 60.5893 107.478 60.2907 106.87 59.896ZM118.381 61V49.8H120.429V61H118.381ZM126.902 59.896L127.574 58.376C128.054 58.7067 128.576 58.9627 129.142 59.144C129.718 59.3147 130.288 59.4053 130.854 59.416C131.419 59.4267 131.931 59.3627 132.39 59.224C132.859 59.0853 133.232 58.8773 133.51 58.6C133.787 58.3227 133.926 57.976 133.926 57.56C133.926 57.0587 133.718 56.6853 133.302 56.44C132.896 56.184 132.342 56.056 131.638 56.056H129.03V54.424H131.478C132.107 54.424 132.592 54.296 132.934 54.04C133.286 53.784 133.462 53.4373 133.462 53C133.462 52.6373 133.344 52.3387 133.11 52.104C132.886 51.8693 132.576 51.6933 132.182 51.576C131.798 51.4587 131.36 51.4053 130.87 51.416C130.39 51.416 129.888 51.4907 129.366 51.64C128.843 51.7787 128.347 51.9867 127.878 52.264L127.222 50.584C127.926 50.2107 128.662 49.9493 129.43 49.8C130.208 49.6507 130.96 49.608 131.686 49.672C132.411 49.736 133.062 49.9013 133.638 50.168C134.224 50.4347 134.694 50.7867 135.046 51.224C135.398 51.6507 135.574 52.1573 135.574 52.744C135.574 53.2773 135.43 53.752 135.142 54.168C134.864 54.5733 134.48 54.888 133.99 55.112C133.499 55.336 132.928 55.448 132.278 55.448L132.358 54.936C133.094 54.936 133.734 55.064 134.278 55.32C134.832 55.5653 135.259 55.9067 135.558 56.344C135.867 56.7813 136.022 57.288 136.022 57.864C136.022 58.408 135.883 58.8933 135.606 59.32C135.328 59.736 134.95 60.088 134.47 60.376C133.99 60.6533 133.44 60.8613 132.822 61C132.203 61.128 131.552 61.176 130.87 61.144C130.187 61.112 129.504 60.9947 128.822 60.792C128.15 60.5893 127.51 60.2907 126.902 59.896ZM146.268 49.8H148.348V61H146.268V49.8ZM140.476 61H138.396V49.8H140.476V61ZM146.428 56.2H140.3V54.424H146.428V56.2ZM151.506 61V49.8H153.554V57.752L159.57 49.8H161.506V61H159.458V53.064L153.442 61H151.506ZM177.254 61L173.99 55.544L175.75 54.504L179.654 61H177.254ZM171.91 56.28V54.488H175.286V56.28H171.91ZM175.862 55.64L173.926 55.384L177.206 49.8H179.414L175.862 55.64ZM165.734 61H163.334L167.238 54.504L169.014 55.544L165.734 61ZM172.518 61H170.486V49.8H172.518V61ZM171.094 56.28H167.702V54.488H171.094V56.28ZM167.142 55.64L163.574 49.8H165.782L169.046 55.384L167.142 55.64ZM188.507 61L184.715 55.544L186.395 54.504L190.859 61H188.507ZM181.099 61V49.8H183.147V61H181.099ZM182.523 56.28V54.488H186.299V56.28H182.523ZM186.587 55.64L184.683 55.384L188.507 49.8H190.715L186.587 55.64ZM197.44 61.16C196.565 61.16 195.76 61.016 195.024 60.728C194.288 60.44 193.648 60.04 193.104 59.528C192.56 59.0053 192.139 58.3973 191.84 57.704C191.541 57 191.392 56.232 191.392 55.4C191.392 54.568 191.541 53.8053 191.84 53.112C192.139 52.408 192.56 51.8 193.104 51.288C193.648 50.7653 194.288 50.36 195.024 50.072C195.76 49.784 196.56 49.64 197.424 49.64C198.299 49.64 199.099 49.784 199.824 50.072C200.56 50.36 201.2 50.7653 201.744 51.288C202.288 51.8 202.709 52.408 203.008 53.112C203.307 53.8053 203.456 54.568 203.456 55.4C203.456 56.232 203.307 57 203.008 57.704C202.709 58.408 202.288 59.016 201.744 59.528C201.2 60.04 200.56 60.44 199.824 60.728C199.099 61.016 198.304 61.16 197.44 61.16ZM197.424 59.336C197.989 59.336 198.512 59.24 198.992 59.048C199.472 58.856 199.888 58.584 200.24 58.232C200.592 57.8693 200.864 57.4533 201.056 56.984C201.259 56.504 201.36 55.976 201.36 55.4C201.36 54.824 201.259 54.3013 201.056 53.832C200.864 53.352 200.592 52.936 200.24 52.584C199.888 52.2213 199.472 51.944 198.992 51.752C198.512 51.56 197.989 51.464 197.424 51.464C196.859 51.464 196.336 51.56 195.856 51.752C195.387 51.944 194.971 52.2213 194.608 52.584C194.256 52.936 193.979 53.352 193.776 53.832C193.584 54.3013 193.488 54.824 193.488 55.4C193.488 55.9653 193.584 56.488 193.776 56.968C193.979 57.448 194.256 57.8693 194.608 58.232C194.96 58.584 195.376 58.856 195.856 59.048C196.336 59.24 196.859 59.336 197.424 59.336ZM205.772 61V49.8H207.82V54.392H210.716V56.248H207.82V61H205.772ZM215.34 61.16C214.508 61.16 213.74 61.016 213.036 60.728C212.332 60.44 211.718 60.04 211.196 59.528C210.673 59.016 210.262 58.408 209.964 57.704C209.676 57 209.532 56.232 209.532 55.4C209.532 54.568 209.676 53.8 209.964 53.096C210.262 52.392 210.673 51.784 211.196 51.272C211.718 50.76 212.332 50.36 213.036 50.072C213.74 49.784 214.508 49.64 215.34 49.64C216.161 49.64 216.924 49.784 217.628 50.072C218.342 50.36 218.961 50.76 219.484 51.272C220.006 51.784 220.412 52.392 220.7 53.096C220.988 53.8 221.132 54.568 221.132 55.4C221.132 56.232 220.988 57 220.7 57.704C220.412 58.408 220.006 59.016 219.484 59.528C218.961 60.04 218.342 60.44 217.628 60.728C216.924 61.016 216.161 61.16 215.34 61.16ZM215.34 59.336C215.862 59.336 216.348 59.24 216.796 59.048C217.254 58.856 217.649 58.584 217.98 58.232C218.31 57.88 218.566 57.4693 218.748 57C218.94 56.52 219.036 55.9867 219.036 55.4C219.036 54.8133 218.94 54.2853 218.748 53.816C218.566 53.336 218.31 52.92 217.98 52.568C217.649 52.216 217.254 51.944 216.796 51.752C216.348 51.56 215.862 51.464 215.34 51.464C214.817 51.464 214.332 51.56 213.884 51.752C213.436 51.944 213.041 52.216 212.7 52.568C212.369 52.92 212.108 53.336 211.916 53.816C211.734 54.2853 211.644 54.8133 211.644 55.4C211.644 55.9867 211.734 56.52 211.916 57C212.108 57.4693 212.369 57.88 212.7 58.232C213.041 58.584 213.436 58.856 213.884 59.048C214.332 59.24 214.817 59.336 215.34 59.336ZM230.793 49.64C231.817 49.64 232.686 49.8587 233.401 50.296C234.126 50.7227 234.681 51.3467 235.065 52.168C235.449 52.9893 235.641 54.0027 235.641 55.208C235.641 56.488 235.406 57.5707 234.937 58.456C234.478 59.3413 233.838 60.0133 233.017 60.472C232.195 60.9307 231.241 61.16 230.153 61.16C229.587 61.16 229.049 61.1013 228.537 60.984C228.025 60.8667 227.582 60.6853 227.209 60.44L227.977 58.872C228.286 59.0747 228.622 59.2187 228.985 59.304C229.347 59.3787 229.721 59.416 230.105 59.416C231.161 59.416 231.998 59.0907 232.617 58.44C233.235 57.7893 233.545 56.8293 233.545 55.56C233.545 55.3573 233.539 55.1227 233.529 54.856C233.518 54.5787 233.481 54.3013 233.417 54.024L234.057 54.728C233.875 55.1653 233.614 55.5333 233.273 55.832C232.931 56.12 232.531 56.3387 232.073 56.488C231.614 56.6373 231.107 56.712 230.553 56.712C229.827 56.712 229.171 56.5733 228.585 56.296C228.009 56.008 227.55 55.608 227.209 55.096C226.867 54.5733 226.697 53.9653 226.697 53.272C226.697 52.5253 226.878 51.8853 227.241 51.352C227.603 50.808 228.094 50.3867 228.713 50.088C229.342 49.7893 230.035 49.64 230.793 49.64ZM230.905 51.272C230.478 51.272 230.099 51.352 229.769 51.512C229.438 51.6613 229.177 51.88 228.985 52.168C228.803 52.4453 228.713 52.7813 228.713 53.176C228.713 53.7627 228.915 54.2267 229.321 54.568C229.726 54.9093 230.27 55.08 230.953 55.08C231.401 55.08 231.795 55 232.137 54.84C232.478 54.6693 232.745 54.44 232.937 54.152C233.129 53.8533 233.225 53.5227 233.225 53.16C233.225 52.808 233.134 52.4933 232.953 52.216C232.771 51.928 232.51 51.6987 232.169 51.528C231.827 51.3573 231.406 51.272 230.905 51.272ZM240.824 49.64C241.848 49.64 242.717 49.8587 243.432 50.296C244.157 50.7227 244.712 51.3467 245.096 52.168C245.48 52.9893 245.672 54.0027 245.672 55.208C245.672 56.488 245.437 57.5707 244.968 58.456C244.509 59.3413 243.869 60.0133 243.048 60.472C242.226 60.9307 241.272 61.16 240.184 61.16C239.618 61.16 239.08 61.1013 238.568 60.984C238.056 60.8667 237.613 60.6853 237.24 60.44L238.008 58.872C238.317 59.0747 238.653 59.2187 239.016 59.304C239.378 59.3787 239.752 59.416 240.136 59.416C241.192 59.416 242.029 59.0907 242.648 58.44C243.266 57.7893 243.576 56.8293 243.576 55.56C243.576 55.3573 243.57 55.1227 243.56 54.856C243.549 54.5787 243.512 54.3013 243.448 54.024L244.088 54.728C243.906 55.1653 243.645 55.5333 243.304 55.832C242.962 56.12 242.562 56.3387 242.104 56.488C241.645 56.6373 241.138 56.712 240.584 56.712C239.858 56.712 239.202 56.5733 238.616 56.296C238.04 56.008 237.581 55.608 237.24 55.096C236.898 54.5733 236.728 53.9653 236.728 53.272C236.728 52.5253 236.909 51.8853 237.272 51.352C237.634 50.808 238.125 50.3867 238.744 50.088C239.373 49.7893 240.066 49.64 240.824 49.64ZM240.936 51.272C240.509 51.272 240.13 51.352 239.8 51.512C239.469 51.6613 239.208 51.88 239.016 52.168C238.834 52.4453 238.744 52.7813 238.744 53.176C238.744 53.7627 238.946 54.2267 239.352 54.568C239.757 54.9093 240.301 55.08 240.984 55.08C241.432 55.08 241.826 55 242.168 54.84C242.509 54.6693 242.776 54.44 242.968 54.152C243.16 53.8533 243.256 53.5227 243.256 53.16C243.256 52.808 243.165 52.4933 242.984 52.216C242.802 51.928 242.541 51.6987 242.2 51.528C241.858 51.3573 241.437 51.272 240.936 51.272ZM248.647 61L256.295 49.8H257.863L250.215 61H248.647ZM249.575 55.832C249.052 55.832 248.588 55.704 248.183 55.448C247.778 55.192 247.463 54.8347 247.239 54.376C247.015 53.9173 246.903 53.3787 246.903 52.76C246.903 52.1413 247.015 51.6027 247.239 51.144C247.463 50.6853 247.778 50.328 248.183 50.072C248.588 49.816 249.052 49.688 249.575 49.688C250.119 49.688 250.588 49.816 250.983 50.072C251.388 50.328 251.703 50.6853 251.927 51.144C252.151 51.6027 252.263 52.1413 252.263 52.76C252.263 53.3787 252.151 53.9173 251.927 54.376C251.703 54.8347 251.388 55.192 250.983 55.448C250.588 55.704 250.119 55.832 249.575 55.832ZM249.591 54.712C250.018 54.712 250.348 54.5467 250.583 54.216C250.828 53.8747 250.951 53.3893 250.951 52.76C250.951 52.1307 250.828 51.6507 250.583 51.32C250.348 50.9787 250.018 50.808 249.591 50.808C249.164 50.808 248.823 50.9787 248.567 51.32C248.322 51.6613 248.199 52.1413 248.199 52.76C248.199 53.3787 248.322 53.8587 248.567 54.2C248.823 54.5413 249.164 54.712 249.591 54.712ZM256.919 61.112C256.396 61.112 255.932 60.984 255.527 60.728C255.122 60.472 254.807 60.1147 254.583 59.656C254.359 59.1973 254.247 58.6587 254.247 58.04C254.247 57.4213 254.359 56.8827 254.583 56.424C254.807 55.9653 255.122 55.608 255.527 55.352C255.932 55.096 256.396 54.968 256.919 54.968C257.463 54.968 257.932 55.096 258.327 55.352C258.732 55.608 259.047 55.9653 259.271 56.424C259.495 56.8827 259.607 57.4213 259.607 58.04C259.607 58.6587 259.495 59.1973 259.271 59.656C259.047 60.1147 258.732 60.472 258.327 60.728C257.932 60.984 257.463 61.112 256.919 61.112ZM256.919 59.992C257.346 59.992 257.682 59.8213 257.927 59.48C258.172 59.1387 258.295 58.6587 258.295 58.04C258.295 57.4213 258.172 56.9413 257.927 56.6C257.682 56.2587 257.346 56.088 256.919 56.088C256.503 56.088 256.167 56.2587 255.911 56.6C255.666 56.9307 255.543 57.4107 255.543 58.04C255.543 58.6693 255.666 59.1547 255.911 59.496C256.167 59.8267 256.503 59.992 256.919 59.992ZM261.581 57.288L261.197 49.8H263.565L263.165 57.288H261.581ZM262.381 61.112C262.007 61.112 261.698 60.9893 261.453 60.744C261.207 60.4987 261.085 60.2053 261.085 59.864C261.085 59.5227 261.207 59.2347 261.453 59C261.698 58.7547 262.007 58.632 262.381 58.632C262.754 58.632 263.058 58.7547 263.293 59C263.527 59.2347 263.645 59.5227 263.645 59.864C263.645 60.2053 263.527 60.4987 263.293 60.744C263.058 60.9893 262.754 61.112 262.381 61.112Z" fill="white"/>
<defs>
<filter id="filter0_d_1510_228" x="0" y="0" width="370" height="91" filterUnits="userSpaceOnUse" color-interpolation-filters="sRGB">
<feFlood flood-opacity="0" result="BackgroundImageFix"/>
<feColorMatrix in="SourceAlpha" type="matrix" values="0 0 0 0 0 0 0 0 0 0 0 0 0 0 0 0 0 0 127 0" result="hardAlpha"/>
<feOffset dy="3"/>
<feComposite in2="hardAlpha" operator="out"/>
<feColorMatrix type="matrix" values="0 0 0 0 0.825 0 0 0 0 0.0171875 0 0 0 0 0.0171875 0 0 0 1 0"/>
<feBlend mode="normal" in2="BackgroundImageFix" result="effect1_dropShadow_1510_228"/>
<feBlend mode="normal" in="SourceGraphic" in2="effect1_dropShadow_1510_228" result="shape"/>
</filter>
<linearGradient id="paint0_linear_1510_228" x1="2.5" y1="34.9743" x2="371.272" y2="76.7777" gradientUnits="userSpaceOnUse">
<stop stop-color="#FF0000"/>
<stop offset="0.286458" stop-color="#FF8E8E"/>
<stop offset="0.458253" stop-color="#FF7676"/>
<stop offset="0.635417" stop-color="#FF5C5C"/>
<stop offset="1" stop-color="#FF0000"/>
</linearGradient>
<linearGradient id="paint1_linear_1510_228" x1="2.5" y1="34.9743" x2="371.272" y2="76.7777" gradientUnits="userSpaceOnUse">
<stop stop-color="#FF0000"/>
<stop offset="0.286458" stop-color="#FF8E8E"/>
<stop offset="0.458253" stop-color="#FF7676"/>
<stop offset="0.635417" stop-color="#FF5C5C"/>
<stop offset="1" stop-color="#FF0000"/>
</linearGradient>
</defs>
</svg>
