<svg width="370" height="91" viewBox="0 0 370 91" fill="none" xmlns="http://www.w3.org/2000/svg">
<g filter="url(#filter0_d_202_119)">
<path d="M0 8C0 3.58172 3.58172 0 8 0H362C366.418 0 370 3.58172 370 8V44V80C370 84.4183 366.418 88 362 88H8.00001C3.58173 88 0 84.4183 0 80V44V8Z" fill="url(#paint0_linear_202_119)"/>
<path d="M0.5 8C0.5 3.85786 3.85786 0.5 8 0.5H362C366.142 0.5 369.5 3.85787 369.5 8V44V80C369.5 84.1421 366.142 87.5 362 87.5H8.00001C3.85787 87.5 0.5 84.1421 0.5 80V44V8Z" stroke="url(#paint1_linear_202_119)"/>
</g>
<path d="M85.9093 37.896L86.5813 36.376C87.0613 36.7067 87.584 36.9627 88.1493 37.144C88.7253 37.3147 89.296 37.4053 89.8613 37.416C90.4266 37.4267 90.9386 37.3627 91.3973 37.224C91.8666 37.0853 92.24 36.8773 92.5173 36.6C92.7946 36.3227 92.9333 35.976 92.9333 35.56C92.9333 35.0587 92.7253 34.6853 92.3093 34.44C91.904 34.184 91.3493 34.056 90.6453 34.056H88.0373V32.424H90.4853C91.1146 32.424 91.6 32.296 91.9413 32.04C92.2933 31.784 92.4693 31.4373 92.4693 31C92.4693 30.6373 92.352 30.3387 92.1173 30.104C91.8933 29.8693 91.584 29.6933 91.1893 29.576C90.8053 29.4587 90.368 29.4053 89.8773 29.416C89.3973 29.416 88.896 29.4907 88.3733 29.64C87.8506 29.7787 87.3546 29.9867 86.8853 30.264L86.2293 28.584C86.9333 28.2107 87.6693 27.9493 88.4373 27.8C89.216 27.6507 89.968 27.608 90.6933 27.672C91.4186 27.736 92.0693 27.9013 92.6453 28.168C93.232 28.4347 93.7013 28.7867 94.0533 29.224C94.4053 29.6507 94.5813 30.1573 94.5813 30.744C94.5813 31.2773 94.4373 31.752 94.1493 32.168C93.872 32.5733 93.488 32.888 92.9973 33.112C92.5066 33.336 91.936 33.448 91.2853 33.448L91.3653 32.936C92.1013 32.936 92.7413 33.064 93.2853 33.32C93.84 33.5653 94.2666 33.9067 94.5653 34.344C94.8746 34.7813 95.0293 35.288 95.0293 35.864C95.0293 36.408 94.8906 36.8933 94.6133 37.32C94.336 37.736 93.9573 38.088 93.4773 38.376C92.9973 38.6533 92.448 38.8613 91.8293 39C91.2106 39.128 90.56 39.176 89.8773 39.144C89.1946 39.112 88.512 38.9947 87.8293 38.792C87.1573 38.5893 86.5173 38.2907 85.9093 37.896ZM95.9799 39L101.02 27.8H103.068L108.124 39H105.948L101.612 28.904H102.444L98.1239 39H95.9799ZM98.2999 36.408L98.8599 34.776H104.908L105.468 36.408H98.2999ZM109.857 39V27.8H119.761V39H117.713V29.048L118.193 29.56H111.425L111.905 29.048V39H109.857ZM122.936 39V27.8H124.984V35.752L131 27.8H132.936V39H130.888V31.064L124.872 39H122.936ZM141.228 39.16C140.374 39.16 139.58 39.0213 138.844 38.744C138.118 38.456 137.484 38.056 136.94 37.544C136.406 37.0213 135.99 36.408 135.692 35.704C135.393 35 135.244 34.232 135.244 33.4C135.244 32.568 135.393 31.8 135.692 31.096C135.99 30.392 136.412 29.784 136.956 29.272C137.5 28.7493 138.134 28.3493 138.86 28.072C139.585 27.784 140.38 27.64 141.244 27.64C142.161 27.64 142.998 27.8 143.756 28.12C144.513 28.4293 145.153 28.8933 145.676 29.512L144.332 30.776C143.926 30.3387 143.473 30.0133 142.972 29.8C142.47 29.576 141.926 29.464 141.34 29.464C140.753 29.464 140.214 29.56 139.724 29.752C139.244 29.944 138.822 30.216 138.46 30.568C138.108 30.92 137.83 31.336 137.628 31.816C137.436 32.296 137.34 32.824 137.34 33.4C137.34 33.976 137.436 34.504 137.628 34.984C137.83 35.464 138.108 35.88 138.46 36.232C138.822 36.584 139.244 36.856 139.724 37.048C140.214 37.24 140.753 37.336 141.34 37.336C141.926 37.336 142.47 37.2293 142.972 37.016C143.473 36.792 143.926 36.456 144.332 36.008L145.676 37.288C145.153 37.896 144.513 38.36 143.756 38.68C142.998 39 142.156 39.16 141.228 39.16ZM145.949 39L150.989 27.8H153.037L158.093 39H155.917L151.581 28.904H152.413L148.093 39H145.949ZM148.269 36.408L148.829 34.776H154.877L155.437 36.408H148.269ZM161.6 39V29.048L162.096 29.56H157.904V27.8H167.376V29.56H163.184L163.664 29.048V39H161.6ZM169.186 39V27.8H171.234V35.752L177.25 27.8H179.186V39H177.138V31.064L171.122 39H169.186ZM187.478 39.16C186.624 39.16 185.83 39.0213 185.094 38.744C184.368 38.456 183.734 38.056 183.19 37.544C182.656 37.0213 182.24 36.408 181.942 35.704C181.643 35 181.494 34.232 181.494 33.4C181.494 32.568 181.643 31.8 181.942 31.096C182.24 30.392 182.662 29.784 183.206 29.272C183.75 28.7493 184.384 28.3493 185.11 28.072C185.835 27.784 186.63 27.64 187.494 27.64C188.411 27.64 189.248 27.8 190.006 28.12C190.763 28.4293 191.403 28.8933 191.926 29.512L190.582 30.776C190.176 30.3387 189.723 30.0133 189.222 29.8C188.72 29.576 188.176 29.464 187.59 29.464C187.003 29.464 186.464 29.56 185.974 29.752C185.494 29.944 185.072 30.216 184.71 30.568C184.358 30.92 184.08 31.336 183.878 31.816C183.686 32.296 183.59 32.824 183.59 33.4C183.59 33.976 183.686 34.504 183.878 34.984C184.08 35.464 184.358 35.88 184.71 36.232C185.072 36.584 185.494 36.856 185.974 37.048C186.464 37.24 187.003 37.336 187.59 37.336C188.176 37.336 188.72 37.2293 189.222 37.016C189.723 36.792 190.176 36.456 190.582 36.008L191.926 37.288C191.403 37.896 190.763 38.36 190.006 38.68C189.248 39 188.406 39.16 187.478 39.16ZM200.135 39V35.416L200.647 35.88H197.367C196.428 35.88 195.617 35.7253 194.935 35.416C194.263 35.096 193.745 34.6427 193.383 34.056C193.02 33.4587 192.839 32.744 192.839 31.912C192.839 31.048 193.031 30.312 193.415 29.704C193.799 29.0853 194.343 28.616 195.047 28.296C195.751 27.9653 196.577 27.8 197.527 27.8H202.183V39H200.135ZM192.871 39L195.639 35H197.735L195.063 39H192.871ZM200.135 34.744V28.984L200.647 29.56H197.591C196.737 29.56 196.081 29.7573 195.623 30.152C195.175 30.536 194.951 31.112 194.951 31.88C194.951 32.616 195.164 33.1867 195.591 33.592C196.028 33.9867 196.668 34.184 197.511 34.184H200.647L200.135 34.744ZM217.635 27.8H219.715V39H217.635V27.8ZM211.843 39H209.763V27.8H211.843V39ZM217.795 34.2H211.667V32.424H217.795V34.2ZM221.433 39L226.473 27.8H228.521L233.577 39H231.401L227.065 28.904H227.897L223.577 39H221.433ZM223.753 36.408L224.313 34.776H230.361L230.921 36.408H223.753ZM247.124 39L243.332 33.544L245.012 32.504L249.476 39H247.124ZM239.716 39V27.8H241.764V39H239.716ZM241.14 34.28V32.488H244.916V34.28H241.14ZM245.204 33.64L243.3 33.384L247.124 27.8H249.332L245.204 33.64ZM251.189 37.24C251.776 37.4427 252.293 37.496 252.741 37.4C253.189 37.304 253.589 36.9787 253.941 36.424L254.485 35.576L254.693 35.352L258.597 27.8H260.645L255.781 36.84C255.386 37.5973 254.917 38.1733 254.373 38.568C253.829 38.9627 253.242 39.1813 252.613 39.224C251.994 39.2773 251.349 39.16 250.677 38.872L251.189 37.24ZM254.645 37.144L249.653 27.8H251.877L255.781 35.544L254.645 37.144ZM262.091 39V27.8H266.699C267.691 27.8 268.539 27.96 269.243 28.28C269.958 28.6 270.507 29.0587 270.891 29.656C271.275 30.2533 271.467 30.9627 271.467 31.784C271.467 32.6053 271.275 33.3147 270.891 33.912C270.507 34.5093 269.958 34.968 269.243 35.288C268.539 35.608 267.691 35.768 266.699 35.768H263.243L264.171 34.792V39H262.091ZM264.171 35.016L263.243 34.008H266.603C267.521 34.008 268.209 33.816 268.667 33.432C269.137 33.0373 269.371 32.488 269.371 31.784C269.371 31.0693 269.137 30.52 268.667 30.136C268.209 29.752 267.521 29.56 266.603 29.56H263.243L264.171 28.536V35.016ZM278.743 39.16C277.89 39.16 277.095 39.0213 276.359 38.744C275.634 38.456 274.999 38.056 274.455 37.544C273.922 37.0213 273.506 36.408 273.207 35.704C272.909 35 272.759 34.232 272.759 33.4C272.759 32.568 272.909 31.8 273.207 31.096C273.506 30.392 273.927 29.784 274.471 29.272C275.015 28.7493 275.65 28.3493 276.375 28.072C277.101 27.784 277.895 27.64 278.759 27.64C279.677 27.64 280.514 27.8 281.271 28.12C282.029 28.4293 282.669 28.8933 283.191 29.512L281.847 30.776C281.442 30.3387 280.989 30.0133 280.487 29.8C279.986 29.576 279.442 29.464 278.855 29.464C278.269 29.464 277.73 29.56 277.239 29.752C276.759 29.944 276.338 30.216 275.975 30.568C275.623 30.92 275.346 31.336 275.143 31.816C274.951 32.296 274.855 32.824 274.855 33.4C274.855 33.976 274.951 34.504 275.143 34.984C275.346 35.464 275.623 35.88 275.975 36.232C276.338 36.584 276.759 36.856 277.239 37.048C277.73 37.24 278.269 37.336 278.855 37.336C279.442 37.336 279.986 37.2293 280.487 37.016C280.989 36.792 281.442 36.456 281.847 36.008L283.191 37.288C282.669 37.896 282.029 38.36 281.271 38.68C280.514 39 279.671 39.16 278.743 39.16ZM108.097 59.896L108.769 58.376C109.249 58.7067 109.771 58.9627 110.337 59.144C110.913 59.3147 111.483 59.4053 112.049 59.416C112.614 59.4267 113.126 59.3627 113.585 59.224C114.054 59.0853 114.427 58.8773 114.705 58.6C114.982 58.3227 115.121 57.976 115.121 57.56C115.121 57.0587 114.913 56.6853 114.497 56.44C114.091 56.184 113.537 56.056 112.833 56.056H110.225V54.424H112.673C113.302 54.424 113.787 54.296 114.129 54.04C114.481 53.784 114.657 53.4373 114.657 53C114.657 52.6373 114.539 52.3387 114.305 52.104C114.081 51.8693 113.771 51.6933 113.377 51.576C112.993 51.4587 112.555 51.4053 112.065 51.416C111.585 51.416 111.083 51.4907 110.561 51.64C110.038 51.7787 109.542 51.9867 109.073 52.264L108.417 50.584C109.121 50.2107 109.857 49.9493 110.625 49.8C111.403 49.6507 112.155 49.608 112.881 49.672C113.606 49.736 114.257 49.9013 114.833 50.168C115.419 50.4347 115.889 50.7867 116.241 51.224C116.593 51.6507 116.769 52.1573 116.769 52.744C116.769 53.2773 116.625 53.752 116.337 54.168C116.059 54.5733 115.675 54.888 115.185 55.112C114.694 55.336 114.123 55.448 113.473 55.448L113.553 54.936C114.289 54.936 114.929 55.064 115.473 55.32C116.027 55.5653 116.454 55.9067 116.753 56.344C117.062 56.7813 117.217 57.288 117.217 57.864C117.217 58.408 117.078 58.8933 116.801 59.32C116.523 59.736 116.145 60.088 115.665 60.376C115.185 60.6533 114.635 60.8613 114.017 61C113.398 61.128 112.747 61.176 112.065 61.144C111.382 61.112 110.699 60.9947 110.017 60.792C109.345 60.5893 108.705 60.2907 108.097 59.896ZM119.607 61V49.8H121.655V61H119.607ZM128.128 59.896L128.8 58.376C129.28 58.7067 129.803 58.9627 130.368 59.144C130.944 59.3147 131.515 59.4053 132.08 59.416C132.645 59.4267 133.157 59.3627 133.616 59.224C134.085 59.0853 134.459 58.8773 134.736 58.6C135.013 58.3227 135.152 57.976 135.152 57.56C135.152 57.0587 134.944 56.6853 134.528 56.44C134.123 56.184 133.568 56.056 132.864 56.056H130.256V54.424H132.704C133.333 54.424 133.819 54.296 134.16 54.04C134.512 53.784 134.688 53.4373 134.688 53C134.688 52.6373 134.571 52.3387 134.336 52.104C134.112 51.8693 133.803 51.6933 133.408 51.576C133.024 51.4587 132.587 51.4053 132.096 51.416C131.616 51.416 131.115 51.4907 130.592 51.64C130.069 51.7787 129.573 51.9867 129.104 52.264L128.448 50.584C129.152 50.2107 129.888 49.9493 130.656 49.8C131.435 49.6507 132.187 49.608 132.912 49.672C133.637 49.736 134.288 49.9013 134.864 50.168C135.451 50.4347 135.92 50.7867 136.272 51.224C136.624 51.6507 136.8 52.1573 136.8 52.744C136.8 53.2773 136.656 53.752 136.368 54.168C136.091 54.5733 135.707 54.888 135.216 55.112C134.725 55.336 134.155 55.448 133.504 55.448L133.584 54.936C134.32 54.936 134.96 55.064 135.504 55.32C136.059 55.5653 136.485 55.9067 136.784 56.344C137.093 56.7813 137.248 57.288 137.248 57.864C137.248 58.408 137.109 58.8933 136.832 59.32C136.555 59.736 136.176 60.088 135.696 60.376C135.216 60.6533 134.667 60.8613 134.048 61C133.429 61.128 132.779 61.176 132.096 61.144C131.413 61.112 130.731 60.9947 130.048 60.792C129.376 60.5893 128.736 60.2907 128.128 59.896ZM147.495 49.8H149.575V61H147.495V49.8ZM141.703 61H139.623V49.8H141.703V61ZM147.655 56.2H141.527V54.424H147.655V56.2ZM152.732 61V49.8H154.78V57.752L160.796 49.8H162.732V61H160.684V53.064L154.668 61H152.732ZM178.481 61L175.217 55.544L176.977 54.504L180.881 61H178.481ZM173.137 56.28V54.488H176.513V56.28H173.137ZM177.089 55.64L175.153 55.384L178.433 49.8H180.641L177.089 55.64ZM166.961 61H164.561L168.465 54.504L170.241 55.544L166.961 61ZM173.745 61H171.713V49.8H173.745V61ZM172.321 56.28H168.929V54.488H172.321V56.28ZM168.369 55.64L164.801 49.8H167.009L170.273 55.384L168.369 55.64ZM189.734 61L185.942 55.544L187.622 54.504L192.086 61H189.734ZM182.326 61V49.8H184.374V61H182.326ZM183.75 56.28V54.488H187.526V56.28H183.75ZM187.814 55.64L185.91 55.384L189.734 49.8H191.942L187.814 55.64ZM198.666 61.16C197.792 61.16 196.986 61.016 196.25 60.728C195.514 60.44 194.874 60.04 194.33 59.528C193.786 59.0053 193.365 58.3973 193.066 57.704C192.768 57 192.618 56.232 192.618 55.4C192.618 54.568 192.768 53.8053 193.066 53.112C193.365 52.408 193.786 51.8 194.33 51.288C194.874 50.7653 195.514 50.36 196.25 50.072C196.986 49.784 197.786 49.64 198.65 49.64C199.525 49.64 200.325 49.784 201.05 50.072C201.786 50.36 202.426 50.7653 202.97 51.288C203.514 51.8 203.936 52.408 204.234 53.112C204.533 53.8053 204.682 54.568 204.682 55.4C204.682 56.232 204.533 57 204.234 57.704C203.936 58.408 203.514 59.016 202.97 59.528C202.426 60.04 201.786 60.44 201.05 60.728C200.325 61.016 199.53 61.16 198.666 61.16ZM198.65 59.336C199.216 59.336 199.738 59.24 200.218 59.048C200.698 58.856 201.114 58.584 201.466 58.232C201.818 57.8693 202.09 57.4533 202.282 56.984C202.485 56.504 202.586 55.976 202.586 55.4C202.586 54.824 202.485 54.3013 202.282 53.832C202.09 53.352 201.818 52.936 201.466 52.584C201.114 52.2213 200.698 51.944 200.218 51.752C199.738 51.56 199.216 51.464 198.65 51.464C198.085 51.464 197.562 51.56 197.082 51.752C196.613 51.944 196.197 52.2213 195.834 52.584C195.482 52.936 195.205 53.352 195.002 53.832C194.81 54.3013 194.714 54.824 194.714 55.4C194.714 55.9653 194.81 56.488 195.002 56.968C195.205 57.448 195.482 57.8693 195.834 58.232C196.186 58.584 196.602 58.856 197.082 59.048C197.562 59.24 198.085 59.336 198.65 59.336ZM206.998 61V49.8H209.046V54.392H211.942V56.248H209.046V61H206.998ZM216.566 61.16C215.734 61.16 214.966 61.016 214.262 60.728C213.558 60.44 212.945 60.04 212.422 59.528C211.899 59.016 211.489 58.408 211.19 57.704C210.902 57 210.758 56.232 210.758 55.4C210.758 54.568 210.902 53.8 211.19 53.096C211.489 52.392 211.899 51.784 212.422 51.272C212.945 50.76 213.558 50.36 214.262 50.072C214.966 49.784 215.734 49.64 216.566 49.64C217.387 49.64 218.15 49.784 218.854 50.072C219.569 50.36 220.187 50.76 220.71 51.272C221.233 51.784 221.638 52.392 221.926 53.096C222.214 53.8 222.358 54.568 222.358 55.4C222.358 56.232 222.214 57 221.926 57.704C221.638 58.408 221.233 59.016 220.71 59.528C220.187 60.04 219.569 60.44 218.854 60.728C218.15 61.016 217.387 61.16 216.566 61.16ZM216.566 59.336C217.089 59.336 217.574 59.24 218.022 59.048C218.481 58.856 218.875 58.584 219.206 58.232C219.537 57.88 219.793 57.4693 219.974 57C220.166 56.52 220.262 55.9867 220.262 55.4C220.262 54.8133 220.166 54.2853 219.974 53.816C219.793 53.336 219.537 52.92 219.206 52.568C218.875 52.216 218.481 51.944 218.022 51.752C217.574 51.56 217.089 51.464 216.566 51.464C216.043 51.464 215.558 51.56 215.11 51.752C214.662 51.944 214.267 52.216 213.926 52.568C213.595 52.92 213.334 53.336 213.142 53.816C212.961 54.2853 212.87 54.8133 212.87 55.4C212.87 55.9867 212.961 56.52 213.142 57C213.334 57.4693 213.595 57.88 213.926 58.232C214.267 58.584 214.662 58.856 215.11 59.048C215.558 59.24 216.043 59.336 216.566 59.336ZM232.019 49.64C233.043 49.64 233.912 49.8587 234.627 50.296C235.352 50.7227 235.907 51.3467 236.291 52.168C236.675 52.9893 236.867 54.0027 236.867 55.208C236.867 56.488 236.632 57.5707 236.163 58.456C235.704 59.3413 235.064 60.0133 234.243 60.472C233.422 60.9307 232.467 61.16 231.379 61.16C230.814 61.16 230.275 61.1013 229.763 60.984C229.251 60.8667 228.808 60.6853 228.435 60.44L229.203 58.872C229.512 59.0747 229.848 59.2187 230.211 59.304C230.574 59.3787 230.947 59.416 231.331 59.416C232.387 59.416 233.224 59.0907 233.843 58.44C234.462 57.7893 234.771 56.8293 234.771 55.56C234.771 55.3573 234.766 55.1227 234.755 54.856C234.744 54.5787 234.707 54.3013 234.643 54.024L235.283 54.728C235.102 55.1653 234.84 55.5333 234.499 55.832C234.158 56.12 233.758 56.3387 233.299 56.488C232.84 56.6373 232.334 56.712 231.779 56.712C231.054 56.712 230.398 56.5733 229.811 56.296C229.235 56.008 228.776 55.608 228.435 55.096C228.094 54.5733 227.923 53.9653 227.923 53.272C227.923 52.5253 228.104 51.8853 228.467 51.352C228.83 50.808 229.32 50.3867 229.939 50.088C230.568 49.7893 231.262 49.64 232.019 49.64ZM232.131 51.272C231.704 51.272 231.326 51.352 230.995 51.512C230.664 51.6613 230.403 51.88 230.211 52.168C230.03 52.4453 229.939 52.7813 229.939 53.176C229.939 53.7627 230.142 54.2267 230.547 54.568C230.952 54.9093 231.496 55.08 232.179 55.08C232.627 55.08 233.022 55 233.363 54.84C233.704 54.6693 233.971 54.44 234.163 54.152C234.355 53.8533 234.451 53.5227 234.451 53.16C234.451 52.808 234.36 52.4933 234.179 52.216C233.998 51.928 233.736 51.6987 233.395 51.528C233.054 51.3573 232.632 51.272 232.131 51.272ZM242.05 49.64C243.074 49.64 243.944 49.8587 244.658 50.296C245.384 50.7227 245.938 51.3467 246.322 52.168C246.706 52.9893 246.898 54.0027 246.898 55.208C246.898 56.488 246.664 57.5707 246.194 58.456C245.736 59.3413 245.096 60.0133 244.274 60.472C243.453 60.9307 242.498 61.16 241.41 61.16C240.845 61.16 240.306 61.1013 239.794 60.984C239.282 60.8667 238.84 60.6853 238.466 60.44L239.234 58.872C239.544 59.0747 239.88 59.2187 240.242 59.304C240.605 59.3787 240.978 59.416 241.362 59.416C242.418 59.416 243.256 59.0907 243.874 58.44C244.493 57.7893 244.802 56.8293 244.802 55.56C244.802 55.3573 244.797 55.1227 244.786 54.856C244.776 54.5787 244.738 54.3013 244.674 54.024L245.314 54.728C245.133 55.1653 244.872 55.5333 244.53 55.832C244.189 56.12 243.789 56.3387 243.33 56.488C242.872 56.6373 242.365 56.712 241.81 56.712C241.085 56.712 240.429 56.5733 239.842 56.296C239.266 56.008 238.808 55.608 238.466 55.096C238.125 54.5733 237.954 53.9653 237.954 53.272C237.954 52.5253 238.136 51.8853 238.498 51.352C238.861 50.808 239.352 50.3867 239.97 50.088C240.6 49.7893 241.293 49.64 242.05 49.64ZM242.162 51.272C241.736 51.272 241.357 51.352 241.026 51.512C240.696 51.6613 240.434 51.88 240.242 52.168C240.061 52.4453 239.97 52.7813 239.97 53.176C239.97 53.7627 240.173 54.2267 240.578 54.568C240.984 54.9093 241.528 55.08 242.21 55.08C242.658 55.08 243.053 55 243.394 54.84C243.736 54.6693 244.002 54.44 244.194 54.152C244.386 53.8533 244.482 53.5227 244.482 53.16C244.482 52.808 244.392 52.4933 244.21 52.216C244.029 51.928 243.768 51.6987 243.426 51.528C243.085 51.3573 242.664 51.272 242.162 51.272ZM249.874 61L257.522 49.8H259.09L251.442 61H249.874ZM250.802 55.832C250.279 55.832 249.815 55.704 249.41 55.448C249.004 55.192 248.69 54.8347 248.466 54.376C248.242 53.9173 248.13 53.3787 248.13 52.76C248.13 52.1413 248.242 51.6027 248.466 51.144C248.69 50.6853 249.004 50.328 249.41 50.072C249.815 49.816 250.279 49.688 250.802 49.688C251.346 49.688 251.815 49.816 252.21 50.072C252.615 50.328 252.93 50.6853 253.154 51.144C253.378 51.6027 253.49 52.1413 253.49 52.76C253.49 53.3787 253.378 53.9173 253.154 54.376C252.93 54.8347 252.615 55.192 252.21 55.448C251.815 55.704 251.346 55.832 250.802 55.832ZM250.818 54.712C251.244 54.712 251.575 54.5467 251.81 54.216C252.055 53.8747 252.178 53.3893 252.178 52.76C252.178 52.1307 252.055 51.6507 251.81 51.32C251.575 50.9787 251.244 50.808 250.818 50.808C250.391 50.808 250.05 50.9787 249.794 51.32C249.548 51.6613 249.426 52.1413 249.426 52.76C249.426 53.3787 249.548 53.8587 249.794 54.2C250.05 54.5413 250.391 54.712 250.818 54.712ZM258.146 61.112C257.623 61.112 257.159 60.984 256.754 60.728C256.348 60.472 256.034 60.1147 255.81 59.656C255.586 59.1973 255.474 58.6587 255.474 58.04C255.474 57.4213 255.586 56.8827 255.81 56.424C256.034 55.9653 256.348 55.608 256.754 55.352C257.159 55.096 257.623 54.968 258.146 54.968C258.69 54.968 259.159 55.096 259.554 55.352C259.959 55.608 260.274 55.9653 260.498 56.424C260.722 56.8827 260.834 57.4213 260.834 58.04C260.834 58.6587 260.722 59.1973 260.498 59.656C260.274 60.1147 259.959 60.472 259.554 60.728C259.159 60.984 258.69 61.112 258.146 61.112ZM258.146 59.992C258.572 59.992 258.908 59.8213 259.154 59.48C259.399 59.1387 259.522 58.6587 259.522 58.04C259.522 57.4213 259.399 56.9413 259.154 56.6C258.908 56.2587 258.572 56.088 258.146 56.088C257.73 56.088 257.394 56.2587 257.138 56.6C256.892 56.9307 256.77 57.4107 256.77 58.04C256.77 58.6693 256.892 59.1547 257.138 59.496C257.394 59.8267 257.73 59.992 258.146 59.992Z" fill="white"/>
<defs>
<filter id="filter0_d_202_119" x="0" y="0" width="370" height="91" filterUnits="userSpaceOnUse" color-interpolation-filters="sRGB">
<feFlood flood-opacity="0" result="BackgroundImageFix"/>
<feColorMatrix in="SourceAlpha" type="matrix" values="0 0 0 0 0 0 0 0 0 0 0 0 0 0 0 0 0 0 127 0" result="hardAlpha"/>
<feOffset dy="3"/>
<feComposite in2="hardAlpha" operator="out"/>
<feColorMatrix type="matrix" values="0 0 0 0 0.825 0 0 0 0 0.0171875 0 0 0 0 0.0171875 0 0 0 1 0"/>
<feBlend mode="normal" in2="BackgroundImageFix" result="effect1_dropShadow_202_119"/>
<feBlend mode="normal" in="SourceGraphic" in2="effect1_dropShadow_202_119" result="shape"/>
</filter>
<linearGradient id="paint0_linear_202_119" x1="2.5" y1="34.9743" x2="371.272" y2="76.7777" gradientUnits="userSpaceOnUse">
<stop stop-color="#FF0000"/>
<stop offset="0.286458" stop-color="#FF8E8E"/>
<stop offset="0.458253" stop-color="#FF7676"/>
<stop offset="0.635417" stop-color="#FF5C5C"/>
<stop offset="1" stop-color="#FF0000"/>
</linearGradient>
<linearGradient id="paint1_linear_202_119" x1="2.5" y1="34.9743" x2="371.272" y2="76.7777" gradientUnits="userSpaceOnUse">
<stop stop-color="#FF0000"/>
<stop offset="0.286458" stop-color="#FF8E8E"/>
<stop offset="0.458253" stop-color="#FF7676"/>
<stop offset="0.635417" stop-color="#FF5C5C"/>
<stop offset="1" stop-color="#FF0000"/>
</linearGradient>
</defs>
</svg>
