<svg width="53" height="53" viewBox="0 0 53 53" fill="none" xmlns="http://www.w3.org/2000/svg">
<g filter="url(#filter0_b_211_303)">
<circle cx="26.4706" cy="26.4706" r="26.4706" transform="matrix(-1 0 0 1 53 0)" fill="url(#paint0_linear_211_303)"/>
<circle cx="26.4706" cy="26.4706" r="26.4706" transform="matrix(-1 0 0 1 53 0)" fill="url(#paint1_radial_211_303)" fill-opacity="0.36"/>
<circle cx="26.4706" cy="26.4706" r="25.9706" transform="matrix(-1 0 0 1 53 0)" stroke="url(#paint2_linear_211_303)" stroke-opacity="0.24"/>
</g>
<path d="M31.1774 26.5285C31.4703 26.8214 31.4703 27.2963 31.1774 27.5892L26.4044 32.3621C26.1115 32.655 25.6366 32.655 25.3438 32.3621C25.0509 32.0692 25.0509 31.5944 25.3438 31.3015L29.5864 27.0588L25.3438 22.8162C25.0509 22.5233 25.0509 22.0484 25.3438 21.7555C25.6366 21.4626 26.1115 21.4626 26.4044 21.7555L31.1774 26.5285ZM29.4706 26.3088H30.6471V27.8088H29.4706V26.3088Z" fill="white"/>
<defs>
<filter id="filter0_b_211_303" x="-19.9412" y="-20" width="92.9412" height="92.9412" filterUnits="userSpaceOnUse" color-interpolation-filters="sRGB">
<feFlood flood-opacity="0" result="BackgroundImageFix"/>
<feGaussianBlur in="BackgroundImageFix" stdDeviation="10"/>
<feComposite in2="SourceAlpha" operator="in" result="effect1_backgroundBlur_211_303"/>
<feBlend mode="normal" in="SourceGraphic" in2="effect1_backgroundBlur_211_303" result="shape"/>
</filter>
<linearGradient id="paint0_linear_211_303" x1="12.9412" y1="52.9412" x2="49.4118" y2="11.1765" gradientUnits="userSpaceOnUse">
<stop/>
<stop offset="0.932292" stop-color="#232323"/>
<stop offset="1" stop-color="#363636"/>
</linearGradient>
<radialGradient id="paint1_radial_211_303" cx="0" cy="0" r="1" gradientUnits="userSpaceOnUse" gradientTransform="translate(16.2594 52.9412) rotate(-45.1092) scale(25.8206 39.0261)">
<stop offset="0.00211167" stop-color="#FF0000"/>
<stop offset="1" stop-color="#FF0000" stop-opacity="0"/>
</radialGradient>
<linearGradient id="paint2_linear_211_303" x1="6.75543e-07" y1="32.8992" x2="55.9664" y2="23.0672" gradientUnits="userSpaceOnUse">
<stop stop-color="#5C5C5C"/>
<stop offset="1" stop-color="#494949"/>
</linearGradient>
</defs>
</svg>
